<svg width="232" height="38" viewBox="0 0 232 38" fill="none" xmlns="http://www.w3.org/2000/svg">
<path d="M39.825 10.45V28H35.55V10.45H39.825ZM51.423 13.9C53.0564 13.9 54.3564 14.4333 55.323 15.5C56.3064 16.55 56.798 18 56.798 19.85V28H52.548V20.425C52.548 19.4917 52.3064 18.7667 51.823 18.25C51.3397 17.7333 50.6897 17.475 49.873 17.475C49.0564 17.475 48.4064 17.7333 47.923 18.25C47.4397 18.7667 47.198 19.4917 47.198 20.425V28H42.923V14.05H47.198V15.9C47.6314 15.2833 48.2147 14.8 48.948 14.45C49.6814 14.0833 50.5064 13.9 51.423 13.9ZM58.9188 21C58.9188 19.5667 59.1854 18.3083 59.7188 17.225C60.2688 16.1417 61.0104 15.3083 61.9438 14.725C62.8771 14.1417 63.9188 13.85 65.0688 13.85C65.9854 13.85 66.8188 14.0417 67.5688 14.425C68.3354 14.8083 68.9354 15.325 69.3688 15.975V9.5H73.6438V28H69.3688V26C68.9688 26.6667 68.3938 27.2 67.6438 27.6C66.9104 28 66.0521 28.2 65.0688 28.2C63.9188 28.2 62.8771 27.9083 61.9438 27.325C61.0104 26.725 60.2688 25.8833 59.7188 24.8C59.1854 23.7 58.9188 22.4333 58.9188 21ZM69.3688 21.025C69.3688 19.9583 69.0688 19.1167 68.4688 18.5C67.8854 17.8833 67.1688 17.575 66.3188 17.575C65.4688 17.575 64.7438 17.8833 64.1438 18.5C63.5604 19.1 63.2688 19.9333 63.2688 21C63.2688 22.0667 63.5604 22.9167 64.1438 23.55C64.7438 24.1667 65.4688 24.475 66.3188 24.475C67.1688 24.475 67.8854 24.1667 68.4688 23.55C69.0688 22.9333 69.3688 22.0917 69.3688 21.025ZM78.8865 12.6C78.1365 12.6 77.5199 12.3833 77.0365 11.95C76.5699 11.5 76.3365 10.95 76.3365 10.3C76.3365 9.63333 76.5699 9.08333 77.0365 8.65C77.5199 8.2 78.1365 7.975 78.8865 7.975C79.6199 7.975 80.2199 8.2 80.6865 8.65C81.1699 9.08333 81.4115 9.63333 81.4115 10.3C81.4115 10.95 81.1699 11.5 80.6865 11.95C80.2199 12.3833 79.6199 12.6 78.8865 12.6ZM81.0115 14.05V28H76.7365V14.05H81.0115ZM83.2596 21C83.2596 19.5667 83.5262 18.3083 84.0596 17.225C84.6096 16.1417 85.3512 15.3083 86.2846 14.725C87.2179 14.1417 88.2596 13.85 89.4096 13.85C90.3929 13.85 91.2512 14.05 91.9846 14.45C92.7346 14.85 93.3096 15.375 93.7096 16.025V14.05H97.9846V28H93.7096V26.025C93.2929 26.675 92.7096 27.2 91.9596 27.6C91.2262 28 90.3679 28.2 89.3846 28.2C88.2512 28.2 87.2179 27.9083 86.2846 27.325C85.3512 26.725 84.6096 25.8833 84.0596 24.8C83.5262 23.7 83.2596 22.4333 83.2596 21ZM93.7096 21.025C93.7096 19.9583 93.4096 19.1167 92.8096 18.5C92.2262 17.8833 91.5096 17.575 90.6596 17.575C89.8096 17.575 89.0846 17.8833 88.4846 18.5C87.9012 19.1 87.6096 19.9333 87.6096 21C87.6096 22.0667 87.9012 22.9167 88.4846 23.55C89.0846 24.1667 89.8096 24.475 90.6596 24.475C91.5096 24.475 92.2262 24.1667 92.8096 23.55C93.4096 22.9333 93.7096 22.0917 93.7096 21.025ZM109.577 13.9C111.211 13.9 112.511 14.4333 113.477 15.5C114.461 16.55 114.952 18 114.952 19.85V28H110.702V20.425C110.702 19.4917 110.461 18.7667 109.977 18.25C109.494 17.7333 108.844 17.475 108.027 17.475C107.211 17.475 106.561 17.7333 106.077 18.25C105.594 18.7667 105.352 19.4917 105.352 20.425V28H101.077V14.05H105.352V15.9C105.786 15.2833 106.369 14.8 107.102 14.45C107.836 14.0833 108.661 13.9 109.577 13.9ZM143.096 10.45V28H138.821V17.475L134.896 28H131.446L127.496 17.45V28H123.221V10.45H128.271L133.196 22.6L138.071 10.45H143.096ZM159.32 20.8C159.32 21.2 159.295 21.6167 159.245 22.05H149.57C149.637 22.9167 149.912 23.5833 150.395 24.05C150.895 24.5 151.503 24.725 152.22 24.725C153.287 24.725 154.028 24.275 154.445 23.375H158.995C158.762 24.2917 158.337 25.1167 157.72 25.85C157.12 26.5833 156.362 27.1583 155.445 27.575C154.528 27.9917 153.503 28.2 152.37 28.2C151.003 28.2 149.787 27.9083 148.72 27.325C147.653 26.7417 146.82 25.9083 146.22 24.825C145.62 23.7417 145.32 22.475 145.32 21.025C145.32 19.575 145.612 18.3083 146.195 17.225C146.795 16.1417 147.628 15.3083 148.695 14.725C149.762 14.1417 150.987 13.85 152.37 13.85C153.72 13.85 154.92 14.1333 155.97 14.7C157.02 15.2667 157.837 16.075 158.42 17.125C159.02 18.175 159.32 19.4 159.32 20.8ZM154.945 19.675C154.945 18.9417 154.695 18.3583 154.195 17.925C153.695 17.4917 153.07 17.275 152.32 17.275C151.603 17.275 150.995 17.4833 150.495 17.9C150.012 18.3167 149.712 18.9083 149.595 19.675H154.945ZM170.075 13.9C171.709 13.9 173.009 14.4333 173.975 15.5C174.959 16.55 175.45 18 175.45 19.85V28H171.2V20.425C171.2 19.4917 170.959 18.7667 170.475 18.25C169.992 17.7333 169.342 17.475 168.525 17.475C167.709 17.475 167.059 17.7333 166.575 18.25C166.092 18.7667 165.85 19.4917 165.85 20.425V28H161.575V14.05H165.85V15.9C166.284 15.2833 166.867 14.8 167.6 14.45C168.334 14.0833 169.159 13.9 170.075 13.9ZM186.196 24.375V28H184.021C182.471 28 181.263 27.625 180.396 26.875C179.529 26.1083 179.096 24.8667 179.096 23.15V17.6H177.396V14.05H179.096V10.65H183.371V14.05H186.171V17.6H183.371V23.2C183.371 23.6167 183.471 23.9167 183.671 24.1C183.871 24.2833 184.204 24.375 184.671 24.375H186.196ZM194.927 28.2C193.561 28.2 192.327 27.9083 191.227 27.325C190.144 26.7417 189.286 25.9083 188.652 24.825C188.036 23.7417 187.727 22.475 187.727 21.025C187.727 19.5917 188.044 18.3333 188.677 17.25C189.311 16.15 190.177 15.3083 191.277 14.725C192.377 14.1417 193.611 13.85 194.977 13.85C196.344 13.85 197.577 14.1417 198.677 14.725C199.777 15.3083 200.644 16.15 201.277 17.25C201.911 18.3333 202.227 19.5917 202.227 21.025C202.227 22.4583 201.902 23.725 201.252 24.825C200.619 25.9083 199.744 26.7417 198.627 27.325C197.527 27.9083 196.294 28.2 194.927 28.2ZM194.927 24.5C195.744 24.5 196.436 24.2 197.002 23.6C197.586 23 197.877 22.1417 197.877 21.025C197.877 19.9083 197.594 19.05 197.027 18.45C196.477 17.85 195.794 17.55 194.977 17.55C194.144 17.55 193.452 17.85 192.902 18.45C192.352 19.0333 192.077 19.8917 192.077 21.025C192.077 22.1417 192.344 23 192.877 23.6C193.427 24.2 194.111 24.5 194.927 24.5ZM208.77 16.375C209.27 15.6083 209.895 15.0083 210.645 14.575C211.395 14.125 212.229 13.9 213.145 13.9V18.425H211.97C210.904 18.425 210.104 18.6583 209.57 19.125C209.037 19.575 208.77 20.375 208.77 21.525V28H204.495V14.05H208.77V16.375ZM220.864 28.2C219.647 28.2 218.564 27.9917 217.614 27.575C216.664 27.1583 215.914 26.5917 215.364 25.875C214.814 25.1417 214.505 24.325 214.439 23.425H218.664C218.714 23.9083 218.939 24.3 219.339 24.6C219.739 24.9 220.23 25.05 220.814 25.05C221.347 25.05 221.755 24.95 222.039 24.75C222.339 24.5333 222.489 24.2583 222.489 23.925C222.489 23.525 222.28 23.2333 221.864 23.05C221.447 22.85 220.772 22.6333 219.839 22.4C218.839 22.1667 218.005 21.925 217.339 21.675C216.672 21.4083 216.097 21 215.614 20.45C215.13 19.8833 214.889 19.125 214.889 18.175C214.889 17.375 215.105 16.65 215.539 16C215.989 15.3333 216.639 14.8083 217.489 14.425C218.355 14.0417 219.38 13.85 220.564 13.85C222.314 13.85 223.689 14.2833 224.689 15.15C225.705 16.0167 226.289 17.1667 226.439 18.6H222.489C222.422 18.1167 222.205 17.7333 221.839 17.45C221.489 17.1667 221.022 17.025 220.439 17.025C219.939 17.025 219.555 17.125 219.289 17.325C219.022 17.5083 218.889 17.7667 218.889 18.1C218.889 18.5 219.097 18.8 219.514 19C219.947 19.2 220.614 19.4 221.514 19.6C222.547 19.8667 223.389 20.1333 224.039 20.4C224.689 20.65 225.255 21.0667 225.739 21.65C226.239 22.2167 226.497 22.9833 226.514 23.95C226.514 24.7667 226.28 25.5 225.814 26.15C225.364 26.7833 224.705 27.2833 223.839 27.65C222.989 28.0167 221.997 28.2 220.864 28.2Z" fill="#2D309B"/>
<circle cx="230" cy="26" r="2" fill="#278CF0"/>
<circle cx="15" cy="19" r="15" fill="#2D309B"/>
<path d="M28.5 19C28.5 26.4558 22.4558 32.5 15 32.5C7.54416 32.5 1.5 26.4558 1.5 19C1.5 11.5442 7.54416 5.5 15 5.5C22.4558 5.5 28.5 11.5442 28.5 19ZM2.85 19C2.85 25.7103 8.28974 31.15 15 31.15C21.7103 31.15 27.15 25.7103 27.15 19C27.15 12.2897 21.7103 6.85 15 6.85C8.28974 6.85 2.85 12.2897 2.85 19Z" fill="white"/>
<path fill-rule="evenodd" clip-rule="evenodd" d="M15.4887 9.85066C12.1551 10.3307 11.6222 12.4888 10.22 14.9984C9.8534 15.6522 8.65529 17.2963 10.0046 17.7461C10.7794 18.0031 11.1195 17.4626 11.3501 17.0318C11.849 16.0793 12.295 15.2365 12.7977 14.3483C13.4288 13.2296 13.9655 12.0768 15.6172 11.9483C16.1765 11.9029 16.0934 12.0012 16.3013 11.5892C16.7737 10.6368 18.4518 10.633 18.7882 11.9143C18.8865 12.2885 18.8638 12.6362 18.6862 12.9499C18.414 13.4374 18.6332 13.3429 18.86 13.9137C19.0301 14.3294 19.1132 14.8396 19.0792 15.3083C18.9999 16.4422 17.7148 18.4529 17.0874 19.6056C16.8984 19.9533 16.4638 20.6072 16.5961 21.1363C16.7057 21.5899 17.2688 22.0207 17.8962 21.7864C18.3762 21.6012 19.1813 19.8966 19.5403 19.2277C20.5154 17.4173 21.8194 15.5086 20.678 12.9234C19.9977 11.3814 18.1948 9.46515 15.4887 9.85066Z" fill="white"/>
<path fill-rule="evenodd" clip-rule="evenodd" d="M8.84494 20.3312L8.82227 23.9066C8.82227 24.5756 9.07171 24.6058 9.51014 24.912C9.98636 25.2408 11.2109 26.0005 11.7703 26.1252C12.2427 26.231 12.6623 25.8077 12.976 25.6074C13.3426 25.3731 16.8916 23.1205 17.1297 22.8748C16.8462 22.6896 16.7593 22.8332 16.1243 22.2927C14.8544 21.2194 15.0774 20.146 14.2005 19.3334C13.0478 18.2676 11.536 19.409 9.94856 18.8307C9.44211 18.6455 9.19644 18.3507 8.87518 18.2449L8.84494 20.3312Z" fill="white"/>
<path fill-rule="evenodd" clip-rule="evenodd" d="M13.3984 17.8858C13.7764 17.9992 13.9578 17.9539 14.3433 18.1655C14.691 18.3583 14.8649 18.638 15.0614 18.74C15.3298 18.3847 17.6844 14.0874 17.7827 13.6792C16.8529 13.7435 16.441 13.4373 16.1877 12.7986C15.9723 12.9498 15.908 13.1539 15.7795 13.4071C15.2693 14.4087 13.561 17.2282 13.3984 17.8858Z" fill="white"/>
<path fill-rule="evenodd" clip-rule="evenodd" d="M8.80273 28.2231L10.3901 27.282C10.6245 27.1346 10.7945 27.0439 10.8853 26.8663L8.82163 25.7173L8.80273 28.2231Z" fill="white"/>
<path fill-rule="evenodd" clip-rule="evenodd" d="M17.2425 11.5516C16.2711 11.835 16.6264 13.3279 17.6582 13.0974C18.6636 12.8706 18.3536 11.2303 17.2425 11.5516Z" fill="white"/>
</svg>
