<svg width="233" height="38" viewBox="0 0 233 38" fill="none" xmlns="http://www.w3.org/2000/svg">
<path d="M40.8289 10.45V28H36.5539V10.45H40.8289ZM52.427 13.9C54.0603 13.9 55.3603 14.4333 56.327 15.5C57.3103 16.55 57.802 18 57.802 19.85V28H53.552V20.425C53.552 19.4917 53.3103 18.7667 52.827 18.25C52.3436 17.7333 51.6936 17.475 50.877 17.475C50.0603 17.475 49.4103 17.7333 48.927 18.25C48.4436 18.7667 48.202 19.4917 48.202 20.425V28H43.927V14.05H48.202V15.9C48.6353 15.2833 49.2186 14.8 49.952 14.45C50.6853 14.0833 51.5103 13.9 52.427 13.9ZM59.9227 21C59.9227 19.5667 60.1893 18.3083 60.7227 17.225C61.2727 16.1417 62.0143 15.3083 62.9477 14.725C63.881 14.1417 64.9227 13.85 66.0727 13.85C66.9893 13.85 67.8227 14.0417 68.5727 14.425C69.3393 14.8083 69.9393 15.325 70.3727 15.975V9.5H74.6477V28H70.3727V26C69.9727 26.6667 69.3977 27.2 68.6477 27.6C67.9143 28 67.056 28.2 66.0727 28.2C64.9227 28.2 63.881 27.9083 62.9477 27.325C62.0143 26.725 61.2727 25.8833 60.7227 24.8C60.1893 23.7 59.9227 22.4333 59.9227 21ZM70.3727 21.025C70.3727 19.9583 70.0727 19.1167 69.4727 18.5C68.8893 17.8833 68.1727 17.575 67.3227 17.575C66.4727 17.575 65.7477 17.8833 65.1477 18.5C64.5643 19.1 64.2727 19.9333 64.2727 21C64.2727 22.0667 64.5643 22.9167 65.1477 23.55C65.7477 24.1667 66.4727 24.475 67.3227 24.475C68.1727 24.475 68.8893 24.1667 69.4727 23.55C70.0727 22.9333 70.3727 22.0917 70.3727 21.025ZM79.8904 12.6C79.1404 12.6 78.5238 12.3833 78.0404 11.95C77.5738 11.5 77.3404 10.95 77.3404 10.3C77.3404 9.63333 77.5738 9.08333 78.0404 8.65C78.5238 8.2 79.1404 7.975 79.8904 7.975C80.6238 7.975 81.2238 8.2 81.6904 8.65C82.1738 9.08333 82.4154 9.63333 82.4154 10.3C82.4154 10.95 82.1738 11.5 81.6904 11.95C81.2238 12.3833 80.6238 12.6 79.8904 12.6ZM82.0154 14.05V28H77.7404V14.05H82.0154ZM84.2635 21C84.2635 19.5667 84.5301 18.3083 85.0635 17.225C85.6135 16.1417 86.3551 15.3083 87.2885 14.725C88.2218 14.1417 89.2635 13.85 90.4135 13.85C91.3968 13.85 92.2551 14.05 92.9885 14.45C93.7385 14.85 94.3135 15.375 94.7135 16.025V14.05H98.9885V28H94.7135V26.025C94.2968 26.675 93.7135 27.2 92.9635 27.6C92.2301 28 91.3718 28.2 90.3885 28.2C89.2551 28.2 88.2218 27.9083 87.2885 27.325C86.3551 26.725 85.6135 25.8833 85.0635 24.8C84.5301 23.7 84.2635 22.4333 84.2635 21ZM94.7135 21.025C94.7135 19.9583 94.4135 19.1167 93.8135 18.5C93.2301 17.8833 92.5135 17.575 91.6635 17.575C90.8135 17.575 90.0885 17.8833 89.4885 18.5C88.9051 19.1 88.6135 19.9333 88.6135 21C88.6135 22.0667 88.9051 22.9167 89.4885 23.55C90.0885 24.1667 90.8135 24.475 91.6635 24.475C92.5135 24.475 93.2301 24.1667 93.8135 23.55C94.4135 22.9333 94.7135 22.0917 94.7135 21.025ZM110.581 13.9C112.215 13.9 113.515 14.4333 114.481 15.5C115.465 16.55 115.956 18 115.956 19.85V28H111.706V20.425C111.706 19.4917 111.465 18.7667 110.981 18.25C110.498 17.7333 109.848 17.475 109.031 17.475C108.215 17.475 107.565 17.7333 107.081 18.25C106.598 18.7667 106.356 19.4917 106.356 20.425V28H102.081V14.05H106.356V15.9C106.79 15.2833 107.373 14.8 108.106 14.45C108.84 14.0833 109.665 13.9 110.581 13.9ZM144.1 10.45V28H139.825V17.475L135.9 28H132.45L128.5 17.45V28H124.225V10.45H129.275L134.2 22.6L139.075 10.45H144.1ZM160.324 20.8C160.324 21.2 160.299 21.6167 160.249 22.05H150.574C150.641 22.9167 150.916 23.5833 151.399 24.05C151.899 24.5 152.507 24.725 153.224 24.725C154.291 24.725 155.032 24.275 155.449 23.375H159.999C159.766 24.2917 159.341 25.1167 158.724 25.85C158.124 26.5833 157.366 27.1583 156.449 27.575C155.532 27.9917 154.507 28.2 153.374 28.2C152.007 28.2 150.791 27.9083 149.724 27.325C148.657 26.7417 147.824 25.9083 147.224 24.825C146.624 23.7417 146.324 22.475 146.324 21.025C146.324 19.575 146.616 18.3083 147.199 17.225C147.799 16.1417 148.632 15.3083 149.699 14.725C150.766 14.1417 151.991 13.85 153.374 13.85C154.724 13.85 155.924 14.1333 156.974 14.7C158.024 15.2667 158.841 16.075 159.424 17.125C160.024 18.175 160.324 19.4 160.324 20.8ZM155.949 19.675C155.949 18.9417 155.699 18.3583 155.199 17.925C154.699 17.4917 154.074 17.275 153.324 17.275C152.607 17.275 151.999 17.4833 151.499 17.9C151.016 18.3167 150.716 18.9083 150.599 19.675H155.949ZM171.079 13.9C172.713 13.9 174.013 14.4333 174.979 15.5C175.963 16.55 176.454 18 176.454 19.85V28H172.204V20.425C172.204 19.4917 171.963 18.7667 171.479 18.25C170.996 17.7333 170.346 17.475 169.529 17.475C168.713 17.475 168.063 17.7333 167.579 18.25C167.096 18.7667 166.854 19.4917 166.854 20.425V28H162.579V14.05H166.854V15.9C167.288 15.2833 167.871 14.8 168.604 14.45C169.338 14.0833 170.163 13.9 171.079 13.9ZM187.2 24.375V28H185.025C183.475 28 182.267 27.625 181.4 26.875C180.533 26.1083 180.1 24.8667 180.1 23.15V17.6H178.4V14.05H180.1V10.65H184.375V14.05H187.175V17.6H184.375V23.2C184.375 23.6167 184.475 23.9167 184.675 24.1C184.875 24.2833 185.208 24.375 185.675 24.375H187.2ZM195.931 28.2C194.565 28.2 193.331 27.9083 192.231 27.325C191.148 26.7417 190.29 25.9083 189.656 24.825C189.04 23.7417 188.731 22.475 188.731 21.025C188.731 19.5917 189.048 18.3333 189.681 17.25C190.315 16.15 191.181 15.3083 192.281 14.725C193.381 14.1417 194.615 13.85 195.981 13.85C197.348 13.85 198.581 14.1417 199.681 14.725C200.781 15.3083 201.648 16.15 202.281 17.25C202.915 18.3333 203.231 19.5917 203.231 21.025C203.231 22.4583 202.906 23.725 202.256 24.825C201.623 25.9083 200.748 26.7417 199.631 27.325C198.531 27.9083 197.298 28.2 195.931 28.2ZM195.931 24.5C196.748 24.5 197.44 24.2 198.006 23.6C198.59 23 198.881 22.1417 198.881 21.025C198.881 19.9083 198.598 19.05 198.031 18.45C197.481 17.85 196.798 17.55 195.981 17.55C195.148 17.55 194.456 17.85 193.906 18.45C193.356 19.0333 193.081 19.8917 193.081 21.025C193.081 22.1417 193.348 23 193.881 23.6C194.431 24.2 195.115 24.5 195.931 24.5ZM209.774 16.375C210.274 15.6083 210.899 15.0083 211.649 14.575C212.399 14.125 213.233 13.9 214.149 13.9V18.425H212.974C211.908 18.425 211.108 18.6583 210.574 19.125C210.041 19.575 209.774 20.375 209.774 21.525V28H205.499V14.05H209.774V16.375ZM221.868 28.2C220.651 28.2 219.568 27.9917 218.618 27.575C217.668 27.1583 216.918 26.5917 216.368 25.875C215.818 25.1417 215.509 24.325 215.443 23.425H219.668C219.718 23.9083 219.943 24.3 220.343 24.6C220.743 24.9 221.234 25.05 221.818 25.05C222.351 25.05 222.759 24.95 223.043 24.75C223.343 24.5333 223.493 24.2583 223.493 23.925C223.493 23.525 223.284 23.2333 222.868 23.05C222.451 22.85 221.776 22.6333 220.843 22.4C219.843 22.1667 219.009 21.925 218.343 21.675C217.676 21.4083 217.101 21 216.618 20.45C216.134 19.8833 215.893 19.125 215.893 18.175C215.893 17.375 216.109 16.65 216.543 16C216.993 15.3333 217.643 14.8083 218.493 14.425C219.359 14.0417 220.384 13.85 221.568 13.85C223.318 13.85 224.693 14.2833 225.693 15.15C226.709 16.0167 227.293 17.1667 227.443 18.6H223.493C223.426 18.1167 223.209 17.7333 222.843 17.45C222.493 17.1667 222.026 17.025 221.443 17.025C220.943 17.025 220.559 17.125 220.293 17.325C220.026 17.5083 219.893 17.7667 219.893 18.1C219.893 18.5 220.101 18.8 220.518 19C220.951 19.2 221.618 19.4 222.518 19.6C223.551 19.8667 224.393 20.1333 225.043 20.4C225.693 20.65 226.259 21.0667 226.743 21.65C227.243 22.2167 227.501 22.9833 227.518 23.95C227.518 24.7667 227.284 25.5 226.818 26.15C226.368 26.7833 225.709 27.2833 224.843 27.65C223.993 28.0167 223.001 28.2 221.868 28.2Z" fill="white"/>
<circle cx="231.004" cy="26" r="2" fill="#278CF0"/>
<path fill-rule="evenodd" clip-rule="evenodd" d="M15.0018 4C23.2849 4 30.0036 10.7151 30.0036 19.0018C30.0036 27.2849 23.2849 34 15.0018 34C6.71506 34 0 27.2849 0 19.0018C0 10.7151 6.71506 4 15.0018 4ZM9.94881 9.73853H20.0541C22.3699 9.73853 24.2646 11.6333 24.2646 13.9491V24.0507C24.2646 26.3665 22.3699 28.2612 20.0541 28.2612H9.94881C7.63302 28.2612 5.73828 26.3665 5.73828 24.0507V13.9491C5.73828 11.6333 7.63302 9.73853 9.94881 9.73853Z" fill="white"/>
<path fill-rule="evenodd" clip-rule="evenodd" d="M15.465 10.8821C12.5104 11.3068 12.0385 13.2197 10.7935 15.4447C10.4704 16.0218 9.41054 17.4774 10.6047 17.8767C11.2908 18.1053 11.592 17.6262 11.7953 17.2451C12.2381 16.403 12.6338 15.6552 13.0766 14.8676C13.6356 13.8767 14.1111 12.8567 15.5739 12.7405C16.0712 12.7006 15.9986 12.7877 16.18 12.4211C16.6011 11.579 18.0893 11.5754 18.3869 12.7115C18.4741 13.0418 18.4523 13.3503 18.2962 13.6298C18.053 14.0581 18.249 13.9783 18.4523 14.4828C18.5975 14.8494 18.6737 15.2995 18.6447 15.7169C18.5721 16.7224 17.4359 18.5046 16.8806 19.5246C16.71 19.8331 16.3289 20.4139 16.4414 20.8821C16.543 21.285 17.0403 21.6661 17.5957 21.4556C18.0203 21.2923 18.7354 19.7823 19.0548 19.1906C19.9151 17.5863 21.0693 15.8948 20.0603 13.6044C19.4577 12.236 17.8606 10.5373 15.465 10.8821Z" fill="white"/>
<path fill-rule="evenodd" clip-rule="evenodd" d="M9.57679 20.1671L9.55864 23.3395C9.55501 23.9312 9.77642 23.9566 10.1684 24.2252C10.5895 24.5156 11.6748 25.1907 12.1721 25.3032C12.5859 25.3976 12.9597 25.0238 13.2392 24.8459C13.5623 24.639 16.7056 22.639 16.9198 22.4248C16.6693 22.2579 16.5931 22.3849 16.0269 21.9094C14.9017 20.9548 15.1013 20.0038 14.3245 19.2851C13.3046 18.3414 11.9615 19.3504 10.5568 18.8386C10.1067 18.6753 9.88895 18.414 9.60219 18.3196L9.57679 20.1671Z" fill="white"/>
<path fill-rule="evenodd" clip-rule="evenodd" d="M13.6133 18.0038C13.9472 18.1018 14.1106 18.0618 14.4518 18.2506C14.7603 18.4212 14.9127 18.668 15.087 18.7588C15.3265 18.443 17.41 14.6354 17.4971 14.276C16.6732 14.3341 16.3102 14.0618 16.0852 13.4956C15.8928 13.6299 15.8347 13.8078 15.7222 14.0328C15.2721 14.9221 13.7585 17.4194 13.6133 18.0038Z" fill="white"/>
<path fill-rule="evenodd" clip-rule="evenodd" d="M9.54297 27.1616L10.9477 26.3268C11.151 26.1961 11.307 26.1163 11.3869 25.9602L9.55749 24.9438L9.54297 27.1616Z" fill="white"/>
</svg>
