<svg width="234" height="38" viewBox="0 0 234 38" fill="none" xmlns="http://www.w3.org/2000/svg">
<path d="M41.3406 10.45V28H37.0656V10.45H41.3406ZM52.9387 13.9C54.572 13.9 55.872 14.4333 56.8387 15.5C57.822 16.55 58.3137 18 58.3137 19.85V28H54.0637V20.425C54.0637 19.4917 53.822 18.7667 53.3387 18.25C52.8553 17.7333 52.2053 17.475 51.3887 17.475C50.572 17.475 49.922 17.7333 49.4387 18.25C48.9553 18.7667 48.7137 19.4917 48.7137 20.425V28H44.4387V14.05H48.7137V15.9C49.147 15.2833 49.7303 14.8 50.4637 14.45C51.197 14.0833 52.022 13.9 52.9387 13.9ZM60.4344 21C60.4344 19.5667 60.701 18.3083 61.2344 17.225C61.7844 16.1417 62.526 15.3083 63.4594 14.725C64.3927 14.1417 65.4344 13.85 66.5844 13.85C67.501 13.85 68.3344 14.0417 69.0844 14.425C69.851 14.8083 70.451 15.325 70.8844 15.975V9.5H75.1594V28H70.8844V26C70.4844 26.6667 69.9094 27.2 69.1594 27.6C68.426 28 67.5677 28.2 66.5844 28.2C65.4344 28.2 64.3927 27.9083 63.4594 27.325C62.526 26.725 61.7844 25.8833 61.2344 24.8C60.701 23.7 60.4344 22.4333 60.4344 21ZM70.8844 21.025C70.8844 19.9583 70.5844 19.1167 69.9844 18.5C69.401 17.8833 68.6844 17.575 67.8344 17.575C66.9844 17.575 66.2594 17.8833 65.6594 18.5C65.076 19.1 64.7844 19.9333 64.7844 21C64.7844 22.0667 65.076 22.9167 65.6594 23.55C66.2594 24.1667 66.9844 24.475 67.8344 24.475C68.6844 24.475 69.401 24.1667 69.9844 23.55C70.5844 22.9333 70.8844 22.0917 70.8844 21.025ZM80.4021 12.6C79.6521 12.6 79.0355 12.3833 78.5521 11.95C78.0855 11.5 77.8521 10.95 77.8521 10.3C77.8521 9.63333 78.0855 9.08333 78.5521 8.65C79.0355 8.2 79.6521 7.975 80.4021 7.975C81.1355 7.975 81.7355 8.2 82.2021 8.65C82.6855 9.08333 82.9271 9.63333 82.9271 10.3C82.9271 10.95 82.6855 11.5 82.2021 11.95C81.7355 12.3833 81.1355 12.6 80.4021 12.6ZM82.5271 14.05V28H78.2521V14.05H82.5271ZM84.7752 21C84.7752 19.5667 85.0419 18.3083 85.5752 17.225C86.1252 16.1417 86.8669 15.3083 87.8002 14.725C88.7335 14.1417 89.7752 13.85 90.9252 13.85C91.9085 13.85 92.7669 14.05 93.5002 14.45C94.2502 14.85 94.8252 15.375 95.2252 16.025V14.05H99.5002V28H95.2252V26.025C94.8085 26.675 94.2252 27.2 93.4752 27.6C92.7419 28 91.8835 28.2 90.9002 28.2C89.7669 28.2 88.7335 27.9083 87.8002 27.325C86.8669 26.725 86.1252 25.8833 85.5752 24.8C85.0419 23.7 84.7752 22.4333 84.7752 21ZM95.2252 21.025C95.2252 19.9583 94.9252 19.1167 94.3252 18.5C93.7419 17.8833 93.0252 17.575 92.1752 17.575C91.3252 17.575 90.6002 17.8833 90.0002 18.5C89.4169 19.1 89.1252 19.9333 89.1252 21C89.1252 22.0667 89.4169 22.9167 90.0002 23.55C90.6002 24.1667 91.3252 24.475 92.1752 24.475C93.0252 24.475 93.7419 24.1667 94.3252 23.55C94.9252 22.9333 95.2252 22.0917 95.2252 21.025ZM111.093 13.9C112.726 13.9 114.026 14.4333 114.993 15.5C115.976 16.55 116.468 18 116.468 19.85V28H112.218V20.425C112.218 19.4917 111.976 18.7667 111.493 18.25C111.01 17.7333 110.36 17.475 109.543 17.475C108.726 17.475 108.076 17.7333 107.593 18.25C107.11 18.7667 106.868 19.4917 106.868 20.425V28H102.593V14.05H106.868V15.9C107.301 15.2833 107.885 14.8 108.618 14.45C109.351 14.0833 110.176 13.9 111.093 13.9ZM144.612 10.45V28H140.337V17.475L136.412 28H132.962L129.012 17.45V28H124.737V10.45H129.787L134.712 22.6L139.587 10.45H144.612ZM160.836 20.8C160.836 21.2 160.811 21.6167 160.761 22.05H151.086C151.152 22.9167 151.427 23.5833 151.911 24.05C152.411 24.5 153.019 24.725 153.736 24.725C154.802 24.725 155.544 24.275 155.961 23.375H160.511C160.277 24.2917 159.852 25.1167 159.236 25.85C158.636 26.5833 157.877 27.1583 156.961 27.575C156.044 27.9917 155.019 28.2 153.886 28.2C152.519 28.2 151.302 27.9083 150.236 27.325C149.169 26.7417 148.336 25.9083 147.736 24.825C147.136 23.7417 146.836 22.475 146.836 21.025C146.836 19.575 147.127 18.3083 147.711 17.225C148.311 16.1417 149.144 15.3083 150.211 14.725C151.277 14.1417 152.502 13.85 153.886 13.85C155.236 13.85 156.436 14.1333 157.486 14.7C158.536 15.2667 159.352 16.075 159.936 17.125C160.536 18.175 160.836 19.4 160.836 20.8ZM156.461 19.675C156.461 18.9417 156.211 18.3583 155.711 17.925C155.211 17.4917 154.586 17.275 153.836 17.275C153.119 17.275 152.511 17.4833 152.011 17.9C151.527 18.3167 151.227 18.9083 151.111 19.675H156.461ZM171.591 13.9C173.224 13.9 174.524 14.4333 175.491 15.5C176.474 16.55 176.966 18 176.966 19.85V28H172.716V20.425C172.716 19.4917 172.474 18.7667 171.991 18.25C171.508 17.7333 170.858 17.475 170.041 17.475C169.224 17.475 168.574 17.7333 168.091 18.25C167.608 18.7667 167.366 19.4917 167.366 20.425V28H163.091V14.05H167.366V15.9C167.799 15.2833 168.383 14.8 169.116 14.45C169.849 14.0833 170.674 13.9 171.591 13.9ZM187.712 24.375V28H185.537C183.987 28 182.778 27.625 181.912 26.875C181.045 26.1083 180.612 24.8667 180.612 23.15V17.6H178.912V14.05H180.612V10.65H184.887V14.05H187.687V17.6H184.887V23.2C184.887 23.6167 184.987 23.9167 185.187 24.1C185.387 24.2833 185.72 24.375 186.187 24.375H187.712ZM196.443 28.2C195.076 28.2 193.843 27.9083 192.743 27.325C191.66 26.7417 190.801 25.9083 190.168 24.825C189.551 23.7417 189.243 22.475 189.243 21.025C189.243 19.5917 189.56 18.3333 190.193 17.25C190.826 16.15 191.693 15.3083 192.793 14.725C193.893 14.1417 195.126 13.85 196.493 13.85C197.86 13.85 199.093 14.1417 200.193 14.725C201.293 15.3083 202.16 16.15 202.793 17.25C203.426 18.3333 203.743 19.5917 203.743 21.025C203.743 22.4583 203.418 23.725 202.768 24.825C202.135 25.9083 201.26 26.7417 200.143 27.325C199.043 27.9083 197.81 28.2 196.443 28.2ZM196.443 24.5C197.26 24.5 197.951 24.2 198.518 23.6C199.101 23 199.393 22.1417 199.393 21.025C199.393 19.9083 199.11 19.05 198.543 18.45C197.993 17.85 197.31 17.55 196.493 17.55C195.66 17.55 194.968 17.85 194.418 18.45C193.868 19.0333 193.593 19.8917 193.593 21.025C193.593 22.1417 193.86 23 194.393 23.6C194.943 24.2 195.626 24.5 196.443 24.5ZM210.286 16.375C210.786 15.6083 211.411 15.0083 212.161 14.575C212.911 14.125 213.744 13.9 214.661 13.9V18.425H213.486C212.419 18.425 211.619 18.6583 211.086 19.125C210.553 19.575 210.286 20.375 210.286 21.525V28H206.011V14.05H210.286V16.375ZM222.379 28.2C221.163 28.2 220.079 27.9917 219.129 27.575C218.179 27.1583 217.429 26.5917 216.879 25.875C216.329 25.1417 216.021 24.325 215.954 23.425H220.179C220.229 23.9083 220.454 24.3 220.854 24.6C221.254 24.9 221.746 25.05 222.329 25.05C222.863 25.05 223.271 24.95 223.554 24.75C223.854 24.5333 224.004 24.2583 224.004 23.925C224.004 23.525 223.796 23.2333 223.379 23.05C222.963 22.85 222.288 22.6333 221.354 22.4C220.354 22.1667 219.521 21.925 218.854 21.675C218.188 21.4083 217.613 21 217.129 20.45C216.646 19.8833 216.404 19.125 216.404 18.175C216.404 17.375 216.621 16.65 217.054 16C217.504 15.3333 218.154 14.8083 219.004 14.425C219.871 14.0417 220.896 13.85 222.079 13.85C223.829 13.85 225.204 14.2833 226.204 15.15C227.221 16.0167 227.804 17.1667 227.954 18.6H224.004C223.938 18.1167 223.721 17.7333 223.354 17.45C223.004 17.1667 222.538 17.025 221.954 17.025C221.454 17.025 221.071 17.125 220.804 17.325C220.538 17.5083 220.404 17.7667 220.404 18.1C220.404 18.5 220.613 18.8 221.029 19C221.463 19.2 222.129 19.4 223.029 19.6C224.063 19.8667 224.904 20.1333 225.554 20.4C226.204 20.65 226.771 21.0667 227.254 21.65C227.754 22.2167 228.013 22.9833 228.029 23.95C228.029 24.7667 227.796 25.5 227.329 26.15C226.879 26.7833 226.221 27.2833 225.354 27.65C224.504 28.0167 223.513 28.2 222.379 28.2Z" fill="#2D309B"/>
<circle cx="231.516" cy="26" r="2" fill="#278CF0"/>
<path fill-rule="evenodd" clip-rule="evenodd" d="M15.5135 4C23.7967 4 30.5153 10.7151 30.5153 19.0018C30.5153 27.2849 23.7967 34 15.5135 34C7.22678 34 0.511719 27.2849 0.511719 19.0018C0.511719 10.7151 7.22678 4 15.5135 4Z" fill="#2D309B"/>
<path fill-rule="evenodd" clip-rule="evenodd" d="M10.4605 9.73853H20.5658C22.8816 9.73853 24.7763 11.6333 24.7763 13.9491V24.0507C24.7763 26.3665 22.8816 28.2612 20.5658 28.2612H10.4605C8.14474 28.2612 6.25 26.3665 6.25 24.0507V13.9491C6.25 11.6333 8.14474 9.73853 10.4605 9.73853Z" fill="white"/>
<path fill-rule="evenodd" clip-rule="evenodd" d="M15.9767 10.8821C13.0221 11.3068 12.5502 13.2197 11.3052 15.4447C10.9821 16.0218 9.92225 17.4774 11.1164 17.8767C11.8025 18.1053 12.1037 17.6262 12.307 17.2451C12.7498 16.403 13.1455 15.6552 13.5883 14.8676C14.1473 13.8767 14.6228 12.8567 16.0856 12.7405C16.5829 12.7006 16.5103 12.7877 16.6918 12.4211C17.1128 11.579 18.601 11.5754 18.8987 12.7115C18.9858 13.0418 18.964 13.3503 18.8079 13.6298C18.5647 14.0581 18.7607 13.9783 18.964 14.4828C19.1092 14.8494 19.1854 15.2995 19.1564 15.7169C19.0838 16.7224 17.9477 18.5046 17.3923 19.5246C17.2217 19.8331 16.8406 20.4139 16.9531 20.8821C17.0547 21.285 17.552 21.6661 18.1074 21.4556C18.5321 21.2923 19.2471 19.7823 19.5665 19.1906C20.4268 17.5863 21.5811 15.8948 20.572 13.6044C19.9694 12.236 18.3723 10.5373 15.9767 10.8821Z" fill="#2D309B"/>
<path fill-rule="evenodd" clip-rule="evenodd" d="M10.0885 20.1671L10.0704 23.3395C10.0667 23.9312 10.2881 23.9566 10.6802 24.2252C11.1012 24.5156 12.1865 25.1907 12.6838 25.3032C13.0976 25.3976 13.4714 25.0238 13.7509 24.8459C14.074 24.639 17.2174 22.639 17.4315 22.4248C17.1811 22.2579 17.1048 22.3849 16.5386 21.9094C15.4134 20.9548 15.613 20.0038 14.8362 19.2851C13.8163 18.3414 12.4733 19.3504 11.0685 18.8386C10.6185 18.6753 10.4007 18.414 10.1139 18.3196L10.0885 20.1671Z" fill="#2D309B"/>
<path fill-rule="evenodd" clip-rule="evenodd" d="M14.125 18.0038C14.4589 18.1018 14.6223 18.0618 14.9635 18.2506C15.272 18.4212 15.4245 18.668 15.5987 18.7588C15.8382 18.443 17.9217 14.6354 18.0088 14.276C17.1849 14.3341 16.8219 14.0618 16.5969 13.4956C16.4045 13.6299 16.3464 13.8078 16.2339 14.0328C15.7838 14.9221 14.2702 17.4194 14.125 18.0038Z" fill="#2D309B"/>
<path fill-rule="evenodd" clip-rule="evenodd" d="M10.0547 27.1616L11.4594 26.3268C11.6627 26.1961 11.8188 26.1163 11.8986 25.9602L10.0692 24.9438L10.0547 27.1616Z" fill="#2D309B"/>
</svg>
