<svg width="198" height="38" viewBox="0 0 198 38" fill="none" xmlns="http://www.w3.org/2000/svg">
<path d="M5.825 10.45V28H1.55V10.45H5.825ZM17.423 13.9C19.0564 13.9 20.3564 14.4333 21.323 15.5C22.3064 16.55 22.798 18 22.798 19.85V28H18.548V20.425C18.548 19.4917 18.3064 18.7667 17.823 18.25C17.3397 17.7333 16.6897 17.475 15.873 17.475C15.0564 17.475 14.4064 17.7333 13.923 18.25C13.4397 18.7667 13.198 19.4917 13.198 20.425V28H8.92305V14.05H13.198V15.9C13.6314 15.2833 14.2147 14.8 14.948 14.45C15.6814 14.0833 16.5064 13.9 17.423 13.9ZM24.9188 21C24.9188 19.5667 25.1854 18.3083 25.7188 17.225C26.2688 16.1417 27.0104 15.3083 27.9438 14.725C28.8771 14.1417 29.9188 13.85 31.0688 13.85C31.9854 13.85 32.8188 14.0417 33.5688 14.425C34.3354 14.8083 34.9354 15.325 35.3688 15.975V9.5H39.6438V28H35.3688V26C34.9688 26.6667 34.3938 27.2 33.6438 27.6C32.9104 28 32.0521 28.2 31.0688 28.2C29.9188 28.2 28.8771 27.9083 27.9438 27.325C27.0104 26.725 26.2688 25.8833 25.7188 24.8C25.1854 23.7 24.9188 22.4333 24.9188 21ZM35.3688 21.025C35.3688 19.9583 35.0688 19.1167 34.4688 18.5C33.8854 17.8833 33.1688 17.575 32.3188 17.575C31.4688 17.575 30.7438 17.8833 30.1438 18.5C29.5604 19.1 29.2688 19.9333 29.2688 21C29.2688 22.0667 29.5604 22.9167 30.1438 23.55C30.7438 24.1667 31.4688 24.475 32.3188 24.475C33.1688 24.475 33.8854 24.1667 34.4688 23.55C35.0688 22.9333 35.3688 22.0917 35.3688 21.025ZM44.8865 12.6C44.1365 12.6 43.5199 12.3833 43.0365 11.95C42.5699 11.5 42.3365 10.95 42.3365 10.3C42.3365 9.63333 42.5699 9.08333 43.0365 8.65C43.5199 8.2 44.1365 7.975 44.8865 7.975C45.6199 7.975 46.2199 8.2 46.6865 8.65C47.1699 9.08333 47.4115 9.63333 47.4115 10.3C47.4115 10.95 47.1699 11.5 46.6865 11.95C46.2199 12.3833 45.6199 12.6 44.8865 12.6ZM47.0115 14.05V28H42.7365V14.05H47.0115ZM49.2596 21C49.2596 19.5667 49.5262 18.3083 50.0596 17.225C50.6096 16.1417 51.3512 15.3083 52.2846 14.725C53.2179 14.1417 54.2596 13.85 55.4096 13.85C56.3929 13.85 57.2512 14.05 57.9846 14.45C58.7346 14.85 59.3096 15.375 59.7096 16.025V14.05H63.9846V28H59.7096V26.025C59.2929 26.675 58.7096 27.2 57.9596 27.6C57.2262 28 56.3679 28.2 55.3846 28.2C54.2512 28.2 53.2179 27.9083 52.2846 27.325C51.3512 26.725 50.6096 25.8833 50.0596 24.8C49.5262 23.7 49.2596 22.4333 49.2596 21ZM59.7096 21.025C59.7096 19.9583 59.4096 19.1167 58.8096 18.5C58.2262 17.8833 57.5096 17.575 56.6596 17.575C55.8096 17.575 55.0846 17.8833 54.4846 18.5C53.9012 19.1 53.6096 19.9333 53.6096 21C53.6096 22.0667 53.9012 22.9167 54.4846 23.55C55.0846 24.1667 55.8096 24.475 56.6596 24.475C57.5096 24.475 58.2262 24.1667 58.8096 23.55C59.4096 22.9333 59.7096 22.0917 59.7096 21.025ZM75.5773 13.9C77.2107 13.9 78.5107 14.4333 79.4773 15.5C80.4607 16.55 80.9523 18 80.9523 19.85V28H76.7023V20.425C76.7023 19.4917 76.4607 18.7667 75.9773 18.25C75.494 17.7333 74.844 17.475 74.0273 17.475C73.2107 17.475 72.5607 17.7333 72.0773 18.25C71.594 18.7667 71.3523 19.4917 71.3523 20.425V28H67.0773V14.05H71.3523V15.9C71.7857 15.2833 72.369 14.8 73.1023 14.45C73.8357 14.0833 74.6607 13.9 75.5773 13.9ZM109.096 10.45V28H104.821V17.475L100.896 28H97.4459L93.4959 17.45V28H89.2209V10.45H94.2709L99.1959 22.6L104.071 10.45H109.096ZM125.32 20.8C125.32 21.2 125.295 21.6167 125.245 22.05H115.57C115.637 22.9167 115.912 23.5833 116.395 24.05C116.895 24.5 117.503 24.725 118.22 24.725C119.287 24.725 120.028 24.275 120.445 23.375H124.995C124.762 24.2917 124.337 25.1167 123.72 25.85C123.12 26.5833 122.362 27.1583 121.445 27.575C120.528 27.9917 119.503 28.2 118.37 28.2C117.003 28.2 115.787 27.9083 114.72 27.325C113.653 26.7417 112.82 25.9083 112.22 24.825C111.62 23.7417 111.32 22.475 111.32 21.025C111.32 19.575 111.612 18.3083 112.195 17.225C112.795 16.1417 113.628 15.3083 114.695 14.725C115.762 14.1417 116.987 13.85 118.37 13.85C119.72 13.85 120.92 14.1333 121.97 14.7C123.02 15.2667 123.837 16.075 124.42 17.125C125.02 18.175 125.32 19.4 125.32 20.8ZM120.945 19.675C120.945 18.9417 120.695 18.3583 120.195 17.925C119.695 17.4917 119.07 17.275 118.32 17.275C117.603 17.275 116.995 17.4833 116.495 17.9C116.012 18.3167 115.712 18.9083 115.595 19.675H120.945ZM136.075 13.9C137.709 13.9 139.009 14.4333 139.975 15.5C140.959 16.55 141.45 18 141.45 19.85V28H137.2V20.425C137.2 19.4917 136.959 18.7667 136.475 18.25C135.992 17.7333 135.342 17.475 134.525 17.475C133.709 17.475 133.059 17.7333 132.575 18.25C132.092 18.7667 131.85 19.4917 131.85 20.425V28H127.575V14.05H131.85V15.9C132.284 15.2833 132.867 14.8 133.6 14.45C134.334 14.0833 135.159 13.9 136.075 13.9ZM152.196 24.375V28H150.021C148.471 28 147.263 27.625 146.396 26.875C145.529 26.1083 145.096 24.8667 145.096 23.15V17.6H143.396V14.05H145.096V10.65H149.371V14.05H152.171V17.6H149.371V23.2C149.371 23.6167 149.471 23.9167 149.671 24.1C149.871 24.2833 150.204 24.375 150.671 24.375H152.196ZM160.927 28.2C159.561 28.2 158.327 27.9083 157.227 27.325C156.144 26.7417 155.286 25.9083 154.652 24.825C154.036 23.7417 153.727 22.475 153.727 21.025C153.727 19.5917 154.044 18.3333 154.677 17.25C155.311 16.15 156.177 15.3083 157.277 14.725C158.377 14.1417 159.611 13.85 160.977 13.85C162.344 13.85 163.577 14.1417 164.677 14.725C165.777 15.3083 166.644 16.15 167.277 17.25C167.911 18.3333 168.227 19.5917 168.227 21.025C168.227 22.4583 167.902 23.725 167.252 24.825C166.619 25.9083 165.744 26.7417 164.627 27.325C163.527 27.9083 162.294 28.2 160.927 28.2ZM160.927 24.5C161.744 24.5 162.436 24.2 163.002 23.6C163.586 23 163.877 22.1417 163.877 21.025C163.877 19.9083 163.594 19.05 163.027 18.45C162.477 17.85 161.794 17.55 160.977 17.55C160.144 17.55 159.452 17.85 158.902 18.45C158.352 19.0333 158.077 19.8917 158.077 21.025C158.077 22.1417 158.344 23 158.877 23.6C159.427 24.2 160.111 24.5 160.927 24.5ZM174.77 16.375C175.27 15.6083 175.895 15.0083 176.645 14.575C177.395 14.125 178.229 13.9 179.145 13.9V18.425H177.97C176.904 18.425 176.104 18.6583 175.57 19.125C175.037 19.575 174.77 20.375 174.77 21.525V28H170.495V14.05H174.77V16.375ZM186.864 28.2C185.647 28.2 184.564 27.9917 183.614 27.575C182.664 27.1583 181.914 26.5917 181.364 25.875C180.814 25.1417 180.505 24.325 180.439 23.425H184.664C184.714 23.9083 184.939 24.3 185.339 24.6C185.739 24.9 186.23 25.05 186.814 25.05C187.347 25.05 187.755 24.95 188.039 24.75C188.339 24.5333 188.489 24.2583 188.489 23.925C188.489 23.525 188.28 23.2333 187.864 23.05C187.447 22.85 186.772 22.6333 185.839 22.4C184.839 22.1667 184.005 21.925 183.339 21.675C182.672 21.4083 182.097 21 181.614 20.45C181.13 19.8833 180.889 19.125 180.889 18.175C180.889 17.375 181.105 16.65 181.539 16C181.989 15.3333 182.639 14.8083 183.489 14.425C184.355 14.0417 185.38 13.85 186.564 13.85C188.314 13.85 189.689 14.2833 190.689 15.15C191.705 16.0167 192.289 17.1667 192.439 18.6H188.489C188.422 18.1167 188.205 17.7333 187.839 17.45C187.489 17.1667 187.022 17.025 186.439 17.025C185.939 17.025 185.555 17.125 185.289 17.325C185.022 17.5083 184.889 17.7667 184.889 18.1C184.889 18.5 185.097 18.8 185.514 19C185.947 19.2 186.614 19.4 187.514 19.6C188.547 19.8667 189.389 20.1333 190.039 20.4C190.689 20.65 191.255 21.0667 191.739 21.65C192.239 22.2167 192.497 22.9833 192.514 23.95C192.514 24.7667 192.28 25.5 191.814 26.15C191.364 26.7833 190.705 27.2833 189.839 27.65C188.989 28.0167 187.997 28.2 186.864 28.2Z" fill="#2D309B"/>
<circle cx="196" cy="26" r="2" fill="#278CF0"/>
</svg>
