<svg width="30" height="30" viewBox="0 0 30 30" fill="none" xmlns="http://www.w3.org/2000/svg">
<circle cx="15" cy="15" r="15" fill="#2D309B"/>
<path d="M28.5 15C28.5 22.4558 22.4558 28.5 15 28.5C7.54416 28.5 1.5 22.4558 1.5 15C1.5 7.54416 7.54416 1.5 15 1.5C22.4558 1.5 28.5 7.54416 28.5 15ZM2.85 15C2.85 21.7103 8.28974 27.15 15 27.15C21.7103 27.15 27.15 21.7103 27.15 15C27.15 8.28974 21.7103 2.85 15 2.85C8.28974 2.85 2.85 8.28974 2.85 15Z" fill="white"/>
<path fill-rule="evenodd" clip-rule="evenodd" d="M15.4887 5.85066C12.1551 6.33066 11.6222 8.48877 10.22 10.9984C9.8534 11.6522 8.65529 13.2963 10.0046 13.7461C10.7794 14.0031 11.1195 13.4626 11.3501 13.0318C11.849 12.0793 12.295 11.2365 12.7977 10.3483C13.4288 9.22956 13.9655 8.0768 15.6172 7.9483C16.1765 7.90295 16.0934 8.00121 16.3013 7.58925C16.7737 6.6368 18.4518 6.63302 18.7882 7.91428C18.8865 8.28846 18.8638 8.63617 18.6862 8.94988C18.414 9.43743 18.6332 9.34295 18.86 9.91365C19.0301 10.3294 19.1132 10.8396 19.0792 11.3083C18.9999 12.4422 17.7148 14.4529 17.0874 15.6056C16.8984 15.9533 16.4638 16.6072 16.5961 17.1363C16.7057 17.5899 17.2688 18.0207 17.8962 17.7864C18.3762 17.6012 19.1813 15.8966 19.5403 15.2277C20.5154 13.4173 21.8194 11.5086 20.678 8.92342C19.9977 7.38137 18.1948 5.46515 15.4887 5.85066Z" fill="white"/>
<path fill-rule="evenodd" clip-rule="evenodd" d="M8.84494 16.3312L8.82227 19.9066C8.82227 20.5756 9.07171 20.6058 9.51014 20.912C9.98636 21.2408 11.2109 22.0005 11.7703 22.1252C12.2427 22.231 12.6623 21.8077 12.976 21.6074C13.3426 21.3731 16.8916 19.1205 17.1297 18.8748C16.8462 18.6896 16.7593 18.8332 16.1243 18.2927C14.8544 17.2194 15.0774 16.146 14.2005 15.3334C13.0478 14.2676 11.536 15.409 9.94856 14.8307C9.44211 14.6455 9.19644 14.3507 8.87518 14.2449L8.84494 16.3312Z" fill="white"/>
<path fill-rule="evenodd" clip-rule="evenodd" d="M13.3984 13.8858C13.7764 13.9992 13.9578 13.9539 14.3433 14.1655C14.691 14.3583 14.8649 14.638 15.0614 14.74C15.3298 14.3847 17.6844 10.0874 17.7827 9.67921C16.8529 9.74347 16.441 9.43732 16.1877 8.79858C15.9723 8.94977 15.908 9.15386 15.7795 9.40709C15.2693 10.4087 13.561 13.2282 13.3984 13.8858Z" fill="white"/>
<path fill-rule="evenodd" clip-rule="evenodd" d="M8.80273 24.2231L10.3901 23.282C10.6245 23.1346 10.7945 23.0439 10.8853 22.8663L8.82163 21.7173L8.80273 24.2231Z" fill="white"/>
<path fill-rule="evenodd" clip-rule="evenodd" d="M17.2425 7.55155C16.2711 7.83502 16.6264 9.32793 17.6582 9.09738C18.6636 8.87061 18.3536 7.23029 17.2425 7.55155Z" fill="white"/>
</svg>
