<svg width="346" height="280" viewBox="0 0 346 280" fill="none" xmlns="http://www.w3.org/2000/svg">
<g opacity="0.12">
<circle cx="-55.9997" cy="60.9998" r="56.1429" stroke="#278CF0" stroke-width="2"/>
<circle cx="-56.0004" cy="61.0001" r="63.2857" stroke="#278CF0" stroke-width="2"/>
<circle cx="-56.0001" cy="61.0001" r="70.4286" stroke="#278CF0" stroke-width="2"/>
<circle cx="-55.9999" cy="60.9999" r="77.5714" stroke="#278CF0" stroke-width="2"/>
<circle cx="-55.9996" cy="60.9999" r="84.7143" stroke="#278CF0" stroke-width="2"/>
<circle cx="-56.0003" cy="61.0002" r="91.8571" stroke="#278CF0" stroke-width="2"/>
<circle cx="-56" cy="61" r="99" stroke="#278CF0" stroke-width="2"/>
</g>
<g opacity="0.12">
<circle cx="403.286" cy="180.286" r="63.2857" stroke="#278CF0" stroke-width="2"/>
<circle cx="403" cy="180" r="70.4286" stroke="#278CF0" stroke-width="2"/>
<circle cx="403" cy="180" r="77.5714" stroke="#278CF0" stroke-width="2"/>
<circle cx="403" cy="180" r="84.7143" stroke="#278CF0" stroke-width="2"/>
<circle cx="403" cy="180" r="91.8571" stroke="#278CF0" stroke-width="2"/>
<circle cx="403" cy="180" r="99" stroke="#278CF0" stroke-width="2"/>
</g>
<path d="M-12 -65C-12 -113.601 27.3989 -153 76 -153H269C317.601 -153 357 -113.601 357 -65V140C357 188.601 317.601 228 269 228H76C27.3989 228 -12 188.601 -12 140V-65Z" fill="#2D85EF" fill-opacity="0.1"/>
</svg>
